<mxfile host="app.diagrams.net" modified="2021-07-23T09:32:39.422Z" agent="5.0 (Windows NT 10.0; Win64; x64) AppleWebKit/537.36 (KHTML, like Gecko) Chrome/90.0.4430.72 Safari/537.36" etag="yX3lx8kjhnDKcusl2TxT" version="14.8.4" type="github">
  <diagram id="dEwAVk5H_p11wTZzzqWN" name="第 1 页">
    <mxGraphModel dx="813" dy="1262" grid="1" gridSize="10" guides="1" tooltips="1" connect="1" arrows="1" fold="1" page="1" pageScale="1" pageWidth="1169" pageHeight="827" math="0" shadow="0">
      <root>
        <mxCell id="0" />
        <mxCell id="1" parent="0" />
        <mxCell id="aLqruwpsdbwiLGUMoT0H-7" value="&lt;br&gt;: V3PreShell" style="shape=umlLifeline;perimeter=lifelinePerimeter;whiteSpace=wrap;html=1;container=1;collapsible=0;recursiveResize=0;outlineConnect=0;fontFamily=Times New Roman;" vertex="1" parent="1">
          <mxGeometry x="40" y="-800" width="100" height="562" as="geometry" />
        </mxCell>
        <mxCell id="aLqruwpsdbwiLGUMoT0H-8" value="" style="html=1;points=[];perimeter=orthogonalPerimeter;" vertex="1" parent="aLqruwpsdbwiLGUMoT0H-7">
          <mxGeometry x="45" y="70" width="10" height="50" as="geometry" />
        </mxCell>
        <mxCell id="aLqruwpsdbwiLGUMoT0H-9" value="" style="html=1;points=[];perimeter=orthogonalPerimeter;" vertex="1" parent="aLqruwpsdbwiLGUMoT0H-7">
          <mxGeometry x="45" y="130" width="10" height="60" as="geometry" />
        </mxCell>
        <mxCell id="aLqruwpsdbwiLGUMoT0H-10" value="" style="html=1;points=[];perimeter=orthogonalPerimeter;" vertex="1" parent="aLqruwpsdbwiLGUMoT0H-7">
          <mxGeometry x="45" y="282" width="10" height="60" as="geometry" />
        </mxCell>
        <mxCell id="aLqruwpsdbwiLGUMoT0H-11" value="" style="html=1;points=[];perimeter=orthogonalPerimeter;" vertex="1" parent="aLqruwpsdbwiLGUMoT0H-7">
          <mxGeometry x="45" y="453" width="10" height="28" as="geometry" />
        </mxCell>
        <mxCell id="aLqruwpsdbwiLGUMoT0H-12" value="=0" style="text;html=1;strokeColor=none;fillColor=none;align=center;verticalAlign=middle;whiteSpace=wrap;rounded=0;dashed=1;dashPattern=1 1;" vertex="1" parent="aLqruwpsdbwiLGUMoT0H-7">
          <mxGeometry x="55" y="457" width="25" height="20" as="geometry" />
        </mxCell>
        <mxCell id="aLqruwpsdbwiLGUMoT0H-17" value="s_preImp&lt;br&gt;: V3PreShellImp" style="shape=umlLifeline;perimeter=lifelinePerimeter;whiteSpace=wrap;html=1;container=1;collapsible=0;recursiveResize=0;outlineConnect=0;fontFamily=Times New Roman;" vertex="1" parent="1">
          <mxGeometry x="230" y="-800" width="100" height="562" as="geometry" />
        </mxCell>
        <mxCell id="aLqruwpsdbwiLGUMoT0H-18" value="" style="html=1;points=[];perimeter=orthogonalPerimeter;" vertex="1" parent="aLqruwpsdbwiLGUMoT0H-17">
          <mxGeometry x="45" y="70" width="10" height="50" as="geometry" />
        </mxCell>
        <mxCell id="aLqruwpsdbwiLGUMoT0H-19" value="" style="html=1;points=[];perimeter=orthogonalPerimeter;" vertex="1" parent="aLqruwpsdbwiLGUMoT0H-17">
          <mxGeometry x="45" y="130" width="10" height="60" as="geometry" />
        </mxCell>
        <mxCell id="aLqruwpsdbwiLGUMoT0H-20" value="" style="html=1;points=[];perimeter=orthogonalPerimeter;" vertex="1" parent="aLqruwpsdbwiLGUMoT0H-17">
          <mxGeometry x="45" y="282" width="10" height="60" as="geometry" />
        </mxCell>
        <mxCell id="aLqruwpsdbwiLGUMoT0H-21" value="" style="html=1;points=[];perimeter=orthogonalPerimeter;" vertex="1" parent="aLqruwpsdbwiLGUMoT0H-17">
          <mxGeometry x="45" y="453" width="10" height="28" as="geometry" />
        </mxCell>
        <mxCell id="aLqruwpsdbwiLGUMoT0H-22" value="=0" style="text;html=1;strokeColor=none;fillColor=none;align=center;verticalAlign=middle;whiteSpace=wrap;rounded=0;dashed=1;dashPattern=1 1;" vertex="1" parent="aLqruwpsdbwiLGUMoT0H-17">
          <mxGeometry x="55" y="457" width="25" height="20" as="geometry" />
        </mxCell>
        <mxCell id="aLqruwpsdbwiLGUMoT0H-23" value="preproc(modname, parsep*, ...)" style="html=1;verticalAlign=bottom;endArrow=block;dashed=1;exitX=1.033;exitY=0.04;exitDx=0;exitDy=0;exitPerimeter=0;entryX=0.1;entryY=0.027;entryDx=0;entryDy=0;entryPerimeter=0;" edge="1" parent="1" source="aLqruwpsdbwiLGUMoT0H-8" target="aLqruwpsdbwiLGUMoT0H-18">
          <mxGeometry relative="1" as="geometry">
            <mxPoint x="109.99999999999993" y="-730" as="sourcePoint" />
            <mxPoint x="263.3" y="-730" as="targetPoint" />
          </mxGeometry>
        </mxCell>
      </root>
    </mxGraphModel>
  </diagram>
</mxfile>
